<svg width="64" height="63" viewBox="0 0 64 63" fill="none" xmlns="http://www.w3.org/2000/svg">
<circle cx="32" cy="31.5" r="21.5" fill="white"/>
<path fill-rule="evenodd" clip-rule="evenodd" d="M32.6868 21.2152C32.6868 20.5441 32.1555 20 31.5 20C30.8445 20 30.3132 20.5441 30.3132 21.2152V22.1266H29.6516C27.0108 22.1266 24.8251 24.2289 24.6603 26.9275L24.398 31.2213C24.298 32.8584 23.7612 34.4361 22.8461 35.7824C22.0192 36.9988 22.7553 38.6789 24.1925 38.8555L28.2362 39.3524V40.6582C28.2362 42.5039 29.6974 44 31.5 44C33.3026 44 34.7638 42.5039 34.7638 40.6582V39.3524L38.8074 38.8555C40.2447 38.6789 40.9808 36.9988 40.1539 35.7824C39.2387 34.4361 38.7019 32.8584 38.602 31.2213L38.3397 26.9275C38.1749 24.2289 35.9892 22.1266 33.3484 22.1266H32.6868V21.2152ZM29.6516 23.9494C27.9509 23.9494 26.5432 25.3033 26.4371 27.0413L26.1748 31.335C26.0544 33.3051 25.4085 35.2035 24.3073 36.8236C24.2475 36.9116 24.3007 37.033 24.4046 37.0457L28.8406 37.5907C30.6071 37.8078 32.3928 37.8078 34.1593 37.5907L38.5954 37.0457C38.6992 37.033 38.7525 36.9116 38.6927 36.8236C37.5915 35.2035 36.9455 33.3051 36.8252 31.335L36.5629 27.0413C36.4567 25.3033 35.0491 23.9494 33.3484 23.9494H29.6516ZM31.5 42.1772C30.6806 42.1772 30.0164 41.4972 30.0164 40.6582V39.7468H32.9835V40.6582C32.9835 41.4972 32.3194 42.1772 31.5 42.1772Z" fill="#0E0E2C"/>
<circle cx="36.5" cy="22" r="8" fill="#FF6600"/>
<path d="M38.405 24.85C38.5383 24.85 38.6433 24.8883 38.72 24.965C38.8 25.0383 38.84 25.1367 38.84 25.26V26H33.88V25.59C33.88 25.5067 33.8967 25.42 33.93 25.33C33.9667 25.2367 34.0233 25.1533 34.1 25.08L36.295 22.88C36.4783 22.6933 36.6417 22.515 36.785 22.345C36.9317 22.175 37.0533 22.0067 37.15 21.84C37.2467 21.6733 37.32 21.505 37.37 21.335C37.4233 21.1617 37.45 20.98 37.45 20.79C37.45 20.6167 37.425 20.465 37.375 20.335C37.325 20.2017 37.2533 20.09 37.16 20C37.07 19.91 36.96 19.8433 36.83 19.8C36.7033 19.7533 36.56 19.73 36.4 19.73C36.2533 19.73 36.1167 19.7517 35.99 19.795C35.8667 19.835 35.7567 19.8933 35.66 19.97C35.5633 20.0433 35.4817 20.13 35.415 20.23C35.3483 20.33 35.2983 20.44 35.265 20.56C35.2083 20.7133 35.135 20.815 35.045 20.865C34.955 20.915 34.825 20.9267 34.655 20.9L34.005 20.785C34.055 20.4383 34.1517 20.135 34.295 19.875C34.4383 19.6117 34.6167 19.3933 34.83 19.22C35.0467 19.0433 35.2933 18.9117 35.57 18.825C35.85 18.735 36.15 18.69 36.47 18.69C36.8033 18.69 37.1083 18.74 37.385 18.84C37.6617 18.9367 37.8983 19.075 38.095 19.255C38.2917 19.435 38.445 19.6517 38.555 19.905C38.665 20.1583 38.72 20.44 38.72 20.75C38.72 21.0167 38.68 21.2633 38.6 21.49C38.5233 21.7167 38.4183 21.9333 38.285 22.14C38.155 22.3467 38.0017 22.5467 37.825 22.74C37.6483 22.9333 37.4633 23.13 37.27 23.33L35.64 24.995C35.7967 24.9483 35.9517 24.9133 36.105 24.89C36.2617 24.8633 36.41 24.85 36.55 24.85H38.405Z" fill="white"/>
</svg>
