<svg width="152" height="19" viewBox="0 0 152 19" fill="none" xmlns="http://www.w3.org/2000/svg">
<path d="M11.6 11.448L9.488 5.676C9.384 5.42 9.276 5.116 9.164 4.764C9.052 4.412 8.94 4.032 8.828 3.624C8.724 4.032 8.616 4.416 8.504 4.776C8.392 5.128 8.284 5.436 8.18 5.7L6.08 11.448H11.6ZM17.3 18H14.804C14.524 18 14.296 17.932 14.12 17.796C13.944 17.652 13.812 17.476 13.724 17.268L12.428 13.728H5.24L3.944 17.268C3.88 17.452 3.756 17.62 3.572 17.772C3.388 17.924 3.16 18 2.888 18H0.368L7.196 0.647999H10.484L17.3 18ZM32.1013 0.647999L25.0933 18H22.1773L15.1693 0.647999H17.7613C18.0413 0.647999 18.2693 0.715999 18.4453 0.852C18.6213 0.987999 18.7533 1.164 18.8413 1.38L22.9333 11.964C23.0693 12.308 23.1973 12.688 23.3173 13.104C23.4453 13.512 23.5653 13.94 23.6773 14.388C23.7733 13.94 23.8773 13.512 23.9893 13.104C24.1013 12.688 24.2253 12.308 24.3613 11.964L28.4293 1.38C28.4933 1.196 28.6173 1.028 28.8013 0.875999C28.9933 0.723999 29.2253 0.647999 29.4973 0.647999H32.1013Z" fill="#FF6600"/>
<path d="M54.1813 9.324C54.1813 10.596 53.9693 11.764 53.5453 12.828C53.1213 13.892 52.5253 14.808 51.7573 15.576C50.9893 16.344 50.0653 16.94 48.9853 17.364C47.9053 17.788 46.7053 18 45.3853 18H38.7733V0.647999H45.3853C46.7053 0.647999 47.9053 0.863999 48.9853 1.296C50.0653 1.72 50.9893 2.316 51.7573 3.084C52.5253 3.844 53.1213 4.756 53.5453 5.82C53.9693 6.884 54.1813 8.052 54.1813 9.324ZM50.8693 9.324C50.8693 8.372 50.7413 7.52 50.4853 6.768C50.2373 6.008 49.8733 5.368 49.3933 4.848C48.9213 4.32 48.3453 3.916 47.6653 3.636C46.9933 3.356 46.2333 3.216 45.3853 3.216H42.0133V15.432H45.3853C46.2333 15.432 46.9933 15.292 47.6653 15.012C48.3453 14.732 48.9213 14.332 49.3933 13.812C49.8733 13.284 50.2373 12.644 50.4853 11.892C50.7413 11.132 50.8693 10.276 50.8693 9.324ZM59.7911 3.216V8.028H65.8631V10.512H59.7911V15.42H67.4951V18H56.5511V0.647999H67.4951V3.216H59.7911ZM79.1157 3.804C79.0197 3.972 78.9157 4.096 78.8037 4.176C78.6997 4.248 78.5677 4.284 78.4077 4.284C78.2397 4.284 78.0557 4.224 77.8557 4.104C77.6637 3.976 77.4317 3.836 77.1597 3.684C76.8877 3.532 76.5677 3.396 76.1997 3.276C75.8397 3.148 75.4117 3.084 74.9157 3.084C74.4677 3.084 74.0757 3.14 73.7397 3.252C73.4037 3.356 73.1197 3.504 72.8877 3.696C72.6637 3.888 72.4957 4.12 72.3837 4.392C72.2717 4.656 72.2157 4.948 72.2157 5.268C72.2157 5.676 72.3277 6.016 72.5517 6.288C72.7837 6.56 73.0877 6.792 73.4637 6.984C73.8397 7.176 74.2677 7.348 74.7477 7.5C75.2277 7.652 75.7197 7.816 76.2237 7.992C76.7277 8.16 77.2197 8.36 77.6997 8.592C78.1797 8.816 78.6077 9.104 78.9837 9.456C79.3597 9.8 79.6597 10.224 79.8837 10.728C80.1157 11.232 80.2317 11.844 80.2317 12.564C80.2317 13.348 80.0957 14.084 79.8237 14.772C79.5597 15.452 79.1677 16.048 78.6477 16.56C78.1357 17.064 77.5077 17.464 76.7637 17.76C76.0197 18.048 75.1677 18.192 74.2077 18.192C73.6557 18.192 73.1117 18.136 72.5757 18.024C72.0397 17.92 71.5237 17.768 71.0277 17.568C70.5397 17.368 70.0797 17.128 69.6477 16.848C69.2157 16.568 68.8317 16.256 68.4957 15.912L69.4437 14.364C69.5237 14.252 69.6277 14.16 69.7557 14.088C69.8837 14.008 70.0197 13.968 70.1637 13.968C70.3637 13.968 70.5797 14.052 70.8117 14.22C71.0437 14.38 71.3197 14.56 71.6397 14.76C71.9597 14.96 72.3317 15.144 72.7557 15.312C73.1877 15.472 73.7037 15.552 74.3037 15.552C75.2237 15.552 75.9357 15.336 76.4397 14.904C76.9437 14.464 77.1957 13.836 77.1957 13.02C77.1957 12.564 77.0797 12.192 76.8477 11.904C76.6237 11.616 76.3237 11.376 75.9477 11.184C75.5717 10.984 75.1437 10.816 74.6637 10.68C74.1837 10.544 73.6957 10.396 73.1997 10.236C72.7037 10.076 72.2157 9.884 71.7357 9.66C71.2557 9.436 70.8277 9.144 70.4517 8.784C70.0757 8.424 69.7717 7.976 69.5397 7.44C69.3157 6.896 69.2037 6.228 69.2037 5.436C69.2037 4.804 69.3277 4.188 69.5757 3.588C69.8317 2.988 70.1997 2.456 70.6797 1.992C71.1597 1.528 71.7517 1.156 72.4557 0.875999C73.1597 0.596 73.9677 0.456 74.8797 0.456C75.9037 0.456 76.8477 0.616 77.7117 0.935999C78.5757 1.256 79.3117 1.704 79.9197 2.28L79.1157 3.804ZM85.8076 18H82.5676V0.647999H85.8076V18ZM103.517 9.3V16.32C102.637 16.968 101.697 17.444 100.697 17.748C99.7046 18.044 98.6406 18.192 97.5046 18.192C96.0886 18.192 94.8046 17.972 93.6526 17.532C92.5086 17.092 91.5286 16.48 90.7126 15.696C89.9046 14.912 89.2806 13.976 88.8406 12.888C88.4006 11.8 88.1806 10.612 88.1806 9.324C88.1806 8.02 88.3926 6.824 88.8166 5.736C89.2406 4.648 89.8406 3.712 90.6166 2.928C91.4006 2.144 92.3486 1.536 93.4606 1.104C94.5726 0.671999 95.8206 0.456 97.2046 0.456C97.9086 0.456 98.5646 0.512 99.1726 0.623999C99.7886 0.736 100.357 0.892 100.877 1.092C101.405 1.284 101.885 1.52 102.317 1.8C102.749 2.08 103.145 2.388 103.505 2.724L102.581 4.188C102.437 4.42 102.249 4.564 102.017 4.62C101.785 4.668 101.533 4.608 101.261 4.44C100.997 4.288 100.733 4.136 100.469 3.984C100.205 3.832 99.9086 3.7 99.5806 3.588C99.2606 3.476 98.8966 3.384 98.4886 3.312C98.0886 3.24 97.6246 3.204 97.0966 3.204C96.2406 3.204 95.4646 3.348 94.7686 3.636C94.0806 3.924 93.4926 4.336 93.0046 4.872C92.5166 5.408 92.1406 6.052 91.8766 6.804C91.6126 7.556 91.4806 8.396 91.4806 9.324C91.4806 10.316 91.6206 11.204 91.9006 11.988C92.1886 12.764 92.5886 13.424 93.1006 13.968C93.6206 14.504 94.2446 14.916 94.9726 15.204C95.7006 15.484 96.5126 15.624 97.4086 15.624C98.0486 15.624 98.6206 15.556 99.1246 15.42C99.6286 15.284 100.121 15.1 100.601 14.868V11.724H98.4166C98.2086 11.724 98.0446 11.668 97.9246 11.556C97.8126 11.436 97.7566 11.292 97.7566 11.124V9.3H103.517ZM120.775 0.647999V18H119.119C118.863 18 118.647 17.96 118.471 17.88C118.303 17.792 118.139 17.648 117.979 17.448L108.919 5.88C108.967 6.408 108.991 6.896 108.991 7.344V18H106.147V0.647999H107.839C107.975 0.647999 108.091 0.655999 108.187 0.671999C108.291 0.679999 108.379 0.703999 108.451 0.743999C108.531 0.776 108.607 0.828 108.679 0.899999C108.751 0.963999 108.831 1.052 108.919 1.164L118.015 12.78C117.991 12.5 117.971 12.224 117.955 11.952C117.939 11.68 117.931 11.428 117.931 11.196V0.647999H120.775ZM127.399 3.216V8.028H133.471V10.512H127.399V15.42H135.103V18H124.159V0.647999H135.103V3.216H127.399ZM142.728 8.904C143.336 8.904 143.864 8.828 144.312 8.676C144.768 8.524 145.14 8.316 145.428 8.052C145.724 7.78 145.944 7.46 146.088 7.092C146.232 6.724 146.304 6.32 146.304 5.88C146.304 5 146.012 4.324 145.428 3.852C144.852 3.38 143.968 3.144 142.776 3.144H140.712V8.904H142.728ZM151.032 18H148.116C147.564 18 147.164 17.784 146.916 17.352L143.268 11.796C143.132 11.588 142.98 11.44 142.812 11.352C142.652 11.264 142.412 11.22 142.092 11.22H140.712V18H137.484V0.647999H142.776C143.952 0.647999 144.96 0.771999 145.8 1.02C146.648 1.26 147.34 1.6 147.876 2.04C148.42 2.48 148.82 3.008 149.076 3.624C149.332 4.232 149.46 4.904 149.46 5.64C149.46 6.224 149.372 6.776 149.196 7.296C149.028 7.816 148.78 8.288 148.452 8.712C148.132 9.136 147.732 9.508 147.252 9.828C146.78 10.148 146.24 10.4 145.632 10.584C145.84 10.704 146.032 10.848 146.208 11.016C146.384 11.176 146.544 11.368 146.688 11.592L151.032 18Z" fill="white"/>
</svg>
