<svg width="19" height="24" viewBox="0 0 19 24" fill="none" xmlns="http://www.w3.org/2000/svg">
<path fill-rule="evenodd" clip-rule="evenodd" d="M10.6868 1.21519C10.6868 0.544065 10.1555 0 9.49999 0C8.8445 0 8.31316 0.544065 8.31316 1.21519V2.12658H7.65162C5.0108 2.12658 2.82513 4.22887 2.66029 6.92748L2.39799 11.2213C2.29799 12.8584 1.76119 14.4361 0.846073 15.7824C0.0192296 16.9988 0.755328 18.6789 2.1925 18.8555L6.2362 19.3524V20.6582C6.2362 22.5039 7.69743 24 9.49999 24C11.3026 24 12.7638 22.5039 12.7638 20.6582V19.3524L16.8074 18.8555C18.2447 18.6789 18.9808 16.9988 18.1539 15.7824C17.2387 14.4361 16.7019 12.8584 16.602 11.2213L16.3397 6.92748C16.1749 4.22887 13.9892 2.12658 11.3484 2.12658H10.6868V1.21519ZM7.65162 3.94937C5.95086 3.94937 4.54323 5.3033 4.43706 7.04127L4.17477 11.335C4.05443 13.3051 3.40849 15.2035 2.30729 16.8236C2.24753 16.9116 2.30073 17.033 2.40461 17.0457L6.84059 17.5907C8.60714 17.8078 10.3928 17.8078 12.1593 17.5907L16.5954 17.0457C16.6992 17.033 16.7525 16.9116 16.6927 16.8236C15.5915 15.2035 14.9455 13.3051 14.8252 11.335L14.5629 7.04127C14.4567 5.3033 13.0491 3.94937 11.3484 3.94937H7.65162ZM9.49999 22.1772C8.6806 22.1772 8.01645 21.4972 8.01645 20.6582V19.7468H10.9835V20.6582C10.9835 21.4972 10.3194 22.1772 9.49999 22.1772Z" fill="#0E0E2C"/>
</svg>
